<?xml version="1.0" encoding="utf-8"?>
<?xml-stylesheet type="text/xsl" href="rss1.xsl"?>
<rss version="2.0" xmlns:atom="http://www.w3.org/2005/Atom" xmlns:content="http://purl.org/rss/1.0/modules/content/" xmlns:dc="http://purl.org/dc/elements/1.1/" xmlns:media="http://search.yahoo.com/mrss/">
<channel>
 <title>Getty</title>
 <link>http://www.gettyimg.com/</link>
 <atom:link href="http://www.gettyimg.com/" rel="self" type="application/rss+xml" />

 
                <item>
                <title><![CDATA[【HD Live Performances】FEED - Rita Ora - Live @ Capital's Jingle Bell Ball 2023 FEED HDTV H264 1080i MP2-J Silver]]></title>
                <link><![CDATA[https://sharemania.us/threads/rita-ora-live-capitals-jingle-bell-ball-2023-feed-hdtv-h264-1080i-mp2-j-silver.233832/]]></link>
                <description><![CDATA[<article>
<blockquote class="messageText SelectQuoteContainer ugc baseHtml">
<div style="text-align: center"><img src="https://i121.fastpic.org/big/2022/1212/1d/9467cb07d778e5fb299ecc8c6329de1d.png?r=1" class="bbCodeImage LbImage" alt="[​IMG]" data-url="https://i121.fastpic.org/big/2022/1212/1d/9467cb07d778e5fb299ecc8c6329de1d.png?r=1" style=""><br>
<br>
<a href="https://postimg.cc/XpqTz0WK" target="_blank" class="externalLink" rel="nofollow"><img src="https://i.postimg.cc/XpqTz0WK/vlcsnap-2023-12-12-13h36m22s995.png" class="bbCodeImage LbImage" alt="[​IMG]" data-url="https://i.postimg.cc/XpqTz0WK/vlcsnap-2023-12-12-13h36m22s995.png"></a> <a href="https://postimg.cc/2qRMybZT" target="_blank" class="externalLink" rel="nofollow"><img src="https://i.postimg.cc/2qRMybZT/vlcsnap-2023-12-12-13h36m25s238.png" class="bbCodeImage LbImage" alt="[​IMG]" data-url="https://i.postimg.cc/2qRMybZT/vlcsnap-2023-12-12-13h36m25s238.png"></a> <a href="https://postimg.cc/2qQJZkdY" target="_blank" class="externalLink" rel="nofollow"><img src="https://i.postimg.cc/2qQJZkdY/vlcsnap-2023-12-12-13h36m27s777.png" class="bbCodeImage LbImage" alt="[​IMG]" data-url="https://i.postimg.cc/2qQJZkdY/vlcsnap-2023-12-12-13h36m27s777.png"></a> <a href="https://postimg.cc/xXbB9ycc" target="_blank" class="externalLink" rel="nofollow"><img src="https://i.postimg.cc/xXbB9ycc/vlcsnap-2023-12-12-13h36m30s023.png" class="bbCodeImage LbImage" alt="[​IMG]" data-url="https://i.postimg.cc/xXbB9ycc/vlcsnap-2023-12-12-13h36m30s023.png"></a> <a href="https://postimg.cc/PP7BGFfg" target="_blank" class="externalLink" rel="nofollow"><img src="https://i.postimg.cc/PP7BGFfg/vlcsnap-2023-12-12-13h36m31s723.png" class="bbCodeImage LbImage" alt="[​IMG]" data-url="https://i.postimg.cc/PP7BGFfg/vlcsnap-2023-12-12-13h36m31s723.png"></a> <a href="https://postimg.cc/BLJz5rNK" target="_blank" class="externalLink" rel="nofollow"><img src="https://i.postimg.cc/BLJz5rNK/vlcsnap-2023-12-12-13h36m33s233.png" class="bbCodeImage LbImage" alt="[​IMG]" data-url="https://i.postimg.cc/BLJz5rNK/vlcsnap-2023-12-12-13h36m33s233.png"></a> <br>
<br>
Praising You<br>
Your Song<br>
Anywhere<br>
Hot Right Now<br>
I Will Never Let You Down<br>
​</div><br>
<div class="bbCodeBlock bbCodeCode">
<div class="type">Code:</div>
<pre>General
ID                                       : 1 (0x1)
Complete name                            : F:\Rita Ora - Live @ Capital's Jingle Bell Ball 2023 FEED HDTV H264 1080i MP2-J Silver.ts
Format                                   : MPEG-TS
File size                                : 2.21 GiB
Duration                                 : 20 min 20 s
Overall bit rate mode                    : Variable
Overall bit rate                         : 15.5 Mb/s
Frame rate                               : 25.000 FPS

Video
ID                                       : 308 (0x134)
Menu ID                                  : 1 (0x1)
Format                                   : AVC
Format/Info                              : Advanced Video Codec
Format profile                           : High@L4.1
Format settings                          : CABAC / 4 Ref Frames
Format settings, CABAC                   : Yes
Format settings, Reference frames        : 4 frames
Codec ID                                 : 27
Duration                                 : 20 min 20 s
Bit rate                                 : 14.4 Mb/s
Width                                    : 1 920 pixels
Height                                   : 1 080 pixels
Display aspect ratio                     : 16:9
Active Format Description                : Full frame 16:9 image
Frame rate                               : 25.000 FPS
Color space                              : YUV
Chroma subsampling                       : 4:2:0
Bit depth                                : 8 bits
Scan type                                : Interlaced
Scan type, store method                  : Separated fields
Scan order                               : Top Field First
Bits/(Pixel*Frame)                       : 0.277
Stream size                              : 2.04 GiB (93%)
Color range                              : Limited
Color primaries                          : BT.709
Transfer characteristics                 : BT.709
Matrix coefficients                      : BT.709

Audio
ID                                       : 256 (0x100)
Menu ID                                  : 1 (0x1)
Format                                   : MPEG Audio
Format version                           : Version 1
Format profile                           : Layer 2
Codec ID                                 : 3
Duration                                 : 20 min 21 s
Bit rate mode                            : Constant
Bit rate                                 : 384 kb/s
Channel(s)                               : 2 channels
Sampling rate                            : 48.0 kHz
Frame rate                               : 41.667 FPS (1152 SPF)
Compression mode                         : Lossy
Delay relative to video                  : -80 ms
Stream size                              : 55.9 MiB (2%)
Language                                 : English

</pre>
</div><div style="text-align: center">
<div class="bbCodeBlock bbCodeVfcHH HiddenContent">
<div class="attribution type">Hidden Content:</div>
<blockquote>You must reply before you can see the hidden data contained here.</blockquote>
</div></div>
<div class="messageTextEndMarker">&nbsp;</div>
</blockquote>
</article>]]></description>
                <author><![CDATA[ilya2129]]></author>
                </item>

                
                <item>
                <title><![CDATA[【HD Live Performances】FEED - RAYE - Live @ Capital's Jingle Bell Ball 2023 FEED HDTV H264 1080i MP2-J Silver]]></title>
                <link><![CDATA[https://sharemania.us/threads/raye-live-capitals-jingle-bell-ball-2023-feed-hdtv-h264-1080i-mp2-j-silver.233830/]]></link>
                <description><![CDATA[<article>
<blockquote class="messageText SelectQuoteContainer ugc baseHtml">
<div style="text-align: center"><img src="https://i121.fastpic.org/big/2022/1212/1d/9467cb07d778e5fb299ecc8c6329de1d.png?r=1" class="bbCodeImage LbImage" alt="[​IMG]" data-url="https://i121.fastpic.org/big/2022/1212/1d/9467cb07d778e5fb299ecc8c6329de1d.png?r=1" style=""><br>
<br>
<a href="https://postimg.cc/mt4sXnD8" target="_blank" class="externalLink" rel="nofollow"><img src="https://i.postimg.cc/mt4sXnD8/vlcsnap-2023-12-12-14h16m31s840.png" class="bbCodeImage LbImage" alt="[​IMG]" data-url="https://i.postimg.cc/mt4sXnD8/vlcsnap-2023-12-12-14h16m31s840.png"></a> <a href="https://postimg.cc/4YNTZhpc" target="_blank" class="externalLink" rel="nofollow"><img src="https://i.postimg.cc/4YNTZhpc/vlcsnap-2023-12-12-14h16m34s402.png" class="bbCodeImage LbImage" alt="[​IMG]" data-url="https://i.postimg.cc/4YNTZhpc/vlcsnap-2023-12-12-14h16m34s402.png"></a> <a href="https://postimg.cc/GHj1ZjTr" target="_blank" class="externalLink" rel="nofollow"><img src="https://i.postimg.cc/GHj1ZjTr/vlcsnap-2023-12-12-14h16m36s519.png" class="bbCodeImage LbImage" alt="[​IMG]" data-url="https://i.postimg.cc/GHj1ZjTr/vlcsnap-2023-12-12-14h16m36s519.png"></a> <a href="https://postimg.cc/rdDXRXnF" target="_blank" class="externalLink" rel="nofollow"><img src="https://i.postimg.cc/rdDXRXnF/vlcsnap-2023-12-12-14h16m38s568.png" class="bbCodeImage LbImage" alt="[​IMG]" data-url="https://i.postimg.cc/rdDXRXnF/vlcsnap-2023-12-12-14h16m38s568.png"></a> <a href="https://postimg.cc/LJCFs6Vb" target="_blank" class="externalLink" rel="nofollow"><img src="https://i.postimg.cc/LJCFs6Vb/vlcsnap-2023-12-12-14h16m40s269.png" class="bbCodeImage LbImage" alt="[​IMG]" data-url="https://i.postimg.cc/LJCFs6Vb/vlcsnap-2023-12-12-14h16m40s269.png"></a> <br>
<br>
You Don't Know Me<br>
Worth It.<br>
Secrets<br>
Prada<br>
Escapism.<br>
​</div><br>
<div class="bbCodeBlock bbCodeCode">
<div class="type">Code:</div>
<pre>General
ID                                       : 1 (0x1)
Complete name                            : F:\RAYE - Live @ Capital's Jingle Bell Ball 2023 FEED HDTV H264 1080i MP2-J Silver.ts
Format                                   : MPEG-TS
File size                                : 2.40 GiB
Duration                                 : 22 min 7 s
Overall bit rate mode                    : Variable
Overall bit rate                         : 15.5 Mb/s
Frame rate                               : 25.000 FPS

Video
ID                                       : 308 (0x134)
Menu ID                                  : 1 (0x1)
Format                                   : AVC
Format/Info                              : Advanced Video Codec
Format profile                           : High@L4.1
Format settings                          : CABAC / 4 Ref Frames
Format settings, CABAC                   : Yes
Format settings, Reference frames        : 4 frames
Codec ID                                 : 27
Duration                                 : 22 min 7 s
Bit rate                                 : 14.4 Mb/s
Width                                    : 1 920 pixels
Height                                   : 1 080 pixels
Display aspect ratio                     : 16:9
Active Format Description                : Full frame 16:9 image
Frame rate                               : 25.000 FPS
Color space                              : YUV
Chroma subsampling                       : 4:2:0
Bit depth                                : 8 bits
Scan type                                : Interlaced
Scan type, store method                  : Separated fields
Scan order                               : Top Field First
Bits/(Pixel*Frame)                       : 0.277
Stream size                              : 2.22 GiB (93%)
Color range                              : Limited
Color primaries                          : BT.709
Transfer characteristics                 : BT.709
Matrix coefficients                      : BT.709

Audio
ID                                       : 256 (0x100)
Menu ID                                  : 1 (0x1)
Format                                   : MPEG Audio
Format version                           : Version 1
Format profile                           : Layer 2
Codec ID                                 : 3
Duration                                 : 22 min 7 s
Bit rate mode                            : Constant
Bit rate                                 : 384 kb/s
Channel(s)                               : 2 channels
Sampling rate                            : 48.0 kHz
Frame rate                               : 41.667 FPS (1152 SPF)
Compression mode                         : Lossy
Stream size                              : 60.8 MiB (2%)
Language                                 : English


</pre>
</div><div style="text-align: center">
<div class="bbCodeBlock bbCodeVfcHH HiddenContent">
<div class="attribution type">Hidden Content:</div>
<blockquote>You must reply before you can see the hidden data contained here.</blockquote>
</div></div>
<div class="messageTextEndMarker">&nbsp;</div>
</blockquote>
</article>]]></description>
                <author><![CDATA[ilya2129]]></author>
                </item>

                
                <item>
                <title><![CDATA[【HD Live Performances】FEED - Take That - Live @ Capital's Jingle Bell Ball 2023 FEED HDTV H264 1080i MP2-J Silver]]></title>
                <link><![CDATA[https://sharemania.us/threads/take-that-live-capitals-jingle-bell-ball-2023-feed-hdtv-h264-1080i-mp2-j-silver.233829/]]></link>
                <description><![CDATA[<article>
<blockquote class="messageText SelectQuoteContainer ugc baseHtml">
<div style="text-align: center"><img src="https://i121.fastpic.org/big/2022/1212/1d/9467cb07d778e5fb299ecc8c6329de1d.png?r=1" class="bbCodeImage LbImage" alt="[​IMG]" data-url="https://i121.fastpic.org/big/2022/1212/1d/9467cb07d778e5fb299ecc8c6329de1d.png?r=1" style=""><br>
<br>
<a href="https://postimg.cc/sBjxkXgH" target="_blank" class="externalLink" rel="nofollow"><img src="https://i.postimg.cc/sBjxkXgH/vlcsnap-2023-12-12-14h19m57s515.png" class="bbCodeImage LbImage" alt="[​IMG]" data-url="https://i.postimg.cc/sBjxkXgH/vlcsnap-2023-12-12-14h19m57s515.png"></a> <a href="https://postimg.cc/xk68n2kf" target="_blank" class="externalLink" rel="nofollow"><img src="https://i.postimg.cc/xk68n2kf/vlcsnap-2023-12-12-14h19m59s072.png" class="bbCodeImage LbImage" alt="[​IMG]" data-url="https://i.postimg.cc/xk68n2kf/vlcsnap-2023-12-12-14h19m59s072.png"></a> <a href="https://postimg.cc/F1dz5whv" target="_blank" class="externalLink" rel="nofollow"><img src="https://i.postimg.cc/F1dz5whv/vlcsnap-2023-12-12-14h20m00s654.png" class="bbCodeImage LbImage" alt="[​IMG]" data-url="https://i.postimg.cc/F1dz5whv/vlcsnap-2023-12-12-14h20m00s654.png"></a> <a href="https://postimg.cc/YLWC6Ld0" target="_blank" class="externalLink" rel="nofollow"><img src="https://i.postimg.cc/YLWC6Ld0/vlcsnap-2023-12-12-14h20m02s311.png" class="bbCodeImage LbImage" alt="[​IMG]" data-url="https://i.postimg.cc/YLWC6Ld0/vlcsnap-2023-12-12-14h20m02s311.png"></a> <a href="https://postimg.cc/Jtfn1Khk" target="_blank" class="externalLink" rel="nofollow"><img src="https://i.postimg.cc/Jtfn1Khk/vlcsnap-2023-12-12-14h20m04s772.png" class="bbCodeImage LbImage" alt="[​IMG]" data-url="https://i.postimg.cc/Jtfn1Khk/vlcsnap-2023-12-12-14h20m04s772.png"></a> <a href="https://postimg.cc/YGVSLzfT" target="_blank" class="externalLink" rel="nofollow"><img src="https://i.postimg.cc/YGVSLzfT/vlcsnap-2023-12-12-14h20m06s822.png" class="bbCodeImage LbImage" alt="[​IMG]" data-url="https://i.postimg.cc/YGVSLzfT/vlcsnap-2023-12-12-14h20m06s822.png"></a> <br>
<br>
Greatest Day ft. Calum Scott<br>
Flood<br>
Patience<br>
This Life<br>
Back For Good<br>
Shine<br>
Relight My Fire ft. Rita Ora<br>
Rule The World<br>
Never Forget<br>
​</div><br>
<div class="bbCodeBlock bbCodeCode">
<div class="type">Code:</div>
<pre>General
ID                                       : 1 (0x1)
Complete name                            : F:\Take That - Live @ Capital's Jingle Bell Ball 2023 FEED HDTV H264 1080i MP2-J Silver.ts
Format                                   : MPEG-TS
File size                                : 4.70 GiB
Duration                                 : 43 min 17 s
Overall bit rate mode                    : Variable
Overall bit rate                         : 15.5 Mb/s
Frame rate                               : 25.000 FPS

Video
ID                                       : 308 (0x134)
Menu ID                                  : 1 (0x1)
Format                                   : AVC
Format/Info                              : Advanced Video Codec
Format profile                           : High@L4.1
Format settings                          : CABAC / 4 Ref Frames
Format settings, CABAC                   : Yes
Format settings, Reference frames        : 4 frames
Codec ID                                 : 27
Duration                                 : 43 min 17 s
Bit rate                                 : 14.4 Mb/s
Width                                    : 1 920 pixels
Height                                   : 1 080 pixels
Display aspect ratio                     : 16:9
Active Format Description                : Full frame 16:9 image
Frame rate                               : 25.000 FPS
Color space                              : YUV
Chroma subsampling                       : 4:2:0
Bit depth                                : 8 bits
Scan type                                : Interlaced
Scan type, store method                  : Separated fields
Scan order                               : Top Field First
Bits/(Pixel*Frame)                       : 0.277
Stream size                              : 4.35 GiB (93%)
Color range                              : Limited
Color primaries                          : BT.709
Transfer characteristics                 : BT.709
Matrix coefficients                      : BT.709

Audio
ID                                       : 256 (0x100)
Menu ID                                  : 1 (0x1)
Format                                   : MPEG Audio
Format version                           : Version 1
Format profile                           : Layer 2
Codec ID                                 : 3
Duration                                 : 43 min 17 s
Bit rate mode                            : Constant
Bit rate                                 : 384 kb/s
Channel(s)                               : 2 channels
Sampling rate                            : 48.0 kHz
Frame rate                               : 41.667 FPS (1152 SPF)
Compression mode                         : Lossy
Delay relative to video                  : -80 ms
Stream size                              : 119 MiB (2%)
Language                                 : English

</pre>
</div><div style="text-align: center">
<div class="bbCodeBlock bbCodeVfcHH HiddenContent">
<div class="attribution type">Hidden Content:</div>
<blockquote>You must reply before you can see the hidden data contained here.</blockquote>
</div></div>
<div class="messageTextEndMarker">&nbsp;</div>
</blockquote>
</article>]]></description>
                <author><![CDATA[ilya2129]]></author>
                </item>

                
                <item>
                <title><![CDATA[【Actresses】Rin Asuka and Kaori Yamaguchi - White Lily (2016) 720p]]></title>
                <link><![CDATA[https://sharemania.us/threads/rin-asuka-and-kaori-yamaguchi-white-lily-2016-720p.233834/]]></link>
                <description><![CDATA[<article>
<blockquote class="messageText SelectQuoteContainer ugc baseHtml">
Rin Asuka and Kaori Yamaguchi - White Lily (2016) 720p<br>
<br>
<a href="https://imgbox.com/cRcTrHyi" target="_blank" class="externalLink" rel="nofollow"><img src="https://thumbs2.imgbox.com/49/d3/cRcTrHyi_t.jpg" class="bbCodeImage LbImage" alt="[​IMG]" data-url="https://thumbs2.imgbox.com/49/d3/cRcTrHyi_t.jpg"></a> <a href="https://imgbox.com/FDl8hOAn" target="_blank" class="externalLink" rel="nofollow"><img src="https://thumbs2.imgbox.com/8c/99/FDl8hOAn_t.jpg" class="bbCodeImage LbImage" alt="[​IMG]" data-url="https://thumbs2.imgbox.com/8c/99/FDl8hOAn_t.jpg"></a> <a href="https://imgbox.com/2kTiNiCy" target="_blank" class="externalLink" rel="nofollow"><img src="https://thumbs2.imgbox.com/b5/59/2kTiNiCy_t.jpg" class="bbCodeImage LbImage" alt="[​IMG]" data-url="https://thumbs2.imgbox.com/b5/59/2kTiNiCy_t.jpg"></a> <a href="https://imgbox.com/eKfkL89R" target="_blank" class="externalLink" rel="nofollow"><img src="https://thumbs2.imgbox.com/43/06/eKfkL89R_t.jpg" class="bbCodeImage LbImage" alt="[​IMG]" data-url="https://thumbs2.imgbox.com/43/06/eKfkL89R_t.jpg"></a> <a href="https://imgbox.com/1XXV7myY" target="_blank" class="externalLink" rel="nofollow"><img src="https://thumbs2.imgbox.com/51/55/1XXV7myY_t.jpg" class="bbCodeImage LbImage" alt="[​IMG]" data-url="https://thumbs2.imgbox.com/51/55/1XXV7myY_t.jpg"></a> <a href="https://imgbox.com/6zf1guDq" target="_blank" class="externalLink" rel="nofollow"><img src="https://thumbs2.imgbox.com/2f/f8/6zf1guDq_t.jpg" class="bbCodeImage LbImage" alt="[​IMG]" data-url="https://thumbs2.imgbox.com/2f/f8/6zf1guDq_t.jpg"></a><br>
Duration: 0:01:16 Resolution: 1280x720 Format: mp4 Size: 57.97 MB<br>
<div class="bbCodeBlock bbCodeVfcHH HiddenContent">
<div class="attribution type">Hidden Content:</div>
<blockquote>You must either reply or click 'Like' to see the hidden information contained here.</blockquote>
</div>
<div class="messageTextEndMarker">&nbsp;</div>
</blockquote>
</article>]]></description>
                <author><![CDATA[piqeros]]></author>
                </item>

                
                <item>
                <title><![CDATA[【HD Live Performances】FEED - Zara Larsson - Live @ Capital's Jingle Bell Ball 2023 FEED HDTV H264 1080i MP2-J Silver]]></title>
                <link><![CDATA[https://sharemania.us/threads/zara-larsson-live-capitals-jingle-bell-ball-2023-feed-hdtv-h264-1080i-mp2-j-silver.233833/]]></link>
                <description><![CDATA[<article>
<blockquote class="messageText SelectQuoteContainer ugc baseHtml">
<div style="text-align: center"><img src="https://i121.fastpic.org/big/2022/1212/1d/9467cb07d778e5fb299ecc8c6329de1d.png?r=1" class="bbCodeImage LbImage" alt="[​IMG]" data-url="https://i121.fastpic.org/big/2022/1212/1d/9467cb07d778e5fb299ecc8c6329de1d.png?r=1" style=""><br>
<br>
<a href="https://postimg.cc/Yh8QjJLP" target="_blank" class="externalLink" rel="nofollow"><img src="https://i.postimg.cc/Yh8QjJLP/vlcsnap-2023-12-12-13h39m32s017.png" class="bbCodeImage LbImage" alt="[​IMG]" data-url="https://i.postimg.cc/Yh8QjJLP/vlcsnap-2023-12-12-13h39m32s017.png"></a> <a href="https://postimg.cc/Wd3gZXM1" target="_blank" class="externalLink" rel="nofollow"><img src="https://i.postimg.cc/Wd3gZXM1/vlcsnap-2023-12-12-13h40m52s478.png" class="bbCodeImage LbImage" alt="[​IMG]" data-url="https://i.postimg.cc/Wd3gZXM1/vlcsnap-2023-12-12-13h40m52s478.png"></a> <a href="https://postimg.cc/MnFRmVDb" target="_blank" class="externalLink" rel="nofollow"><img src="https://i.postimg.cc/MnFRmVDb/vlcsnap-2023-12-12-13h40m54s532.png" class="bbCodeImage LbImage" alt="[​IMG]" data-url="https://i.postimg.cc/MnFRmVDb/vlcsnap-2023-12-12-13h40m54s532.png"></a> <a href="https://postimg.cc/ct08LmxZ" target="_blank" class="externalLink" rel="nofollow"><img src="https://i.postimg.cc/ct08LmxZ/vlcsnap-2023-12-12-13h40m56s829.png" class="bbCodeImage LbImage" alt="[​IMG]" data-url="https://i.postimg.cc/ct08LmxZ/vlcsnap-2023-12-12-13h40m56s829.png"></a> <a href="https://postimg.cc/zbngNM10" target="_blank" class="externalLink" rel="nofollow"><img src="https://i.postimg.cc/zbngNM10/vlcsnap-2023-12-12-13h40m58s640.png" class="bbCodeImage LbImage" alt="[​IMG]" data-url="https://i.postimg.cc/zbngNM10/vlcsnap-2023-12-12-13h40m58s640.png"></a> <a href="https://postimg.cc/XZB5Hq1M" target="_blank" class="externalLink" rel="nofollow"><img src="https://i.postimg.cc/XZB5Hq1M/vlcsnap-2023-12-12-13h41m00s530.png" class="bbCodeImage LbImage" alt="[​IMG]" data-url="https://i.postimg.cc/XZB5Hq1M/vlcsnap-2023-12-12-13h41m00s530.png"></a> <a href="https://postimg.cc/DJVXthRS" target="_blank" class="externalLink" rel="nofollow"><img src="https://i.postimg.cc/DJVXthRS/vlcsnap-2023-12-12-13h41m02s016.png" class="bbCodeImage LbImage" alt="[​IMG]" data-url="https://i.postimg.cc/DJVXthRS/vlcsnap-2023-12-12-13h41m02s016.png"></a> <br>
<br>
Can't Tame Her<br>
Never Forget You<br>
On My Love<br>
Symphony<br>
Lush Life<br>
​</div><br>
<div class="bbCodeBlock bbCodeCode">
<div class="type">Code:</div>
<pre>General
ID                                       : 1 (0x1)
Complete name                            : F:\Zara Larsson - Live @ Capital's Jingle Bell Ball 2023 FEED HDTV H264 1080i MP2-J Silver.ts
Format                                   : MPEG-TS
File size                                : 2.19 GiB
Duration                                 : 20 min 11 s
Overall bit rate mode                    : Variable
Overall bit rate                         : 15.5 Mb/s
Frame rate                               : 25.000 FPS

Video
ID                                       : 308 (0x134)
Menu ID                                  : 1 (0x1)
Format                                   : AVC
Format/Info                              : Advanced Video Codec
Format profile                           : High@L4.1
Format settings                          : CABAC / 4 Ref Frames
Format settings, CABAC                   : Yes
Format settings, Reference frames        : 4 frames
Codec ID                                 : 27
Duration                                 : 20 min 11 s
Bit rate                                 : 14.4 Mb/s
Width                                    : 1 920 pixels
Height                                   : 1 080 pixels
Display aspect ratio                     : 16:9
Active Format Description                : Full frame 16:9 image
Frame rate                               : 25.000 FPS
Color space                              : YUV
Chroma subsampling                       : 4:2:0
Bit depth                                : 8 bits
Scan type                                : Interlaced
Scan type, store method                  : Separated fields
Scan order                               : Top Field First
Bits/(Pixel*Frame)                       : 0.277
Stream size                              : 2.03 GiB (93%)
Color range                              : Limited
Color primaries                          : BT.709
Transfer characteristics                 : BT.709
Matrix coefficients                      : BT.709

Audio
ID                                       : 256 (0x100)
Menu ID                                  : 1 (0x1)
Format                                   : MPEG Audio
Format version                           : Version 1
Format profile                           : Layer 2
Codec ID                                 : 3
Duration                                 : 20 min 11 s
Bit rate mode                            : Constant
Bit rate                                 : 384 kb/s
Channel(s)                               : 2 channels
Sampling rate                            : 48.0 kHz
Frame rate                               : 41.667 FPS (1152 SPF)
Compression mode                         : Lossy
Stream size                              : 55.5 MiB (2%)
Language                                 : English
</pre>
</div><div style="text-align: center">
<div class="bbCodeBlock bbCodeVfcHH HiddenContent">
<div class="attribution type">Hidden Content:</div>
<blockquote>You must reply before you can see the hidden data contained here.</blockquote>
</div></div>
<div class="messageTextEndMarker">&nbsp;</div>
</blockquote>
</article>]]></description>
                <author><![CDATA[ilya2129]]></author>
                </item>

                
                <item>
                <title><![CDATA[【HD Live Performances】FEED - Alicia Keys - Live @ Capital's Jingle Bell Ball 2023 (Day 2) FEED HDTV H264 1080i MP2-J Silver]]></title>
                <link><![CDATA[https://sharemania.us/threads/alicia-keys-live-capitals-jingle-bell-ball-2023-day-2-feed-hdtv-h264-1080i-mp2-j-silver.233831/]]></link>
                <description><![CDATA[<article>
<blockquote class="messageText SelectQuoteContainer ugc baseHtml">
thanks
<div class="messageTextEndMarker">&nbsp;</div>
</blockquote>
</article>]]></description>
                <author><![CDATA[ilya2129]]></author>
                </item>

                </channel></rss>